<?xml version="1.0" standalone="no"?>
<!DOCTYPE svg PUBLIC "-//W3C//DTD SVG 20010904//EN"
 "http://www.w3.org/TR/2001/REC-SVG-20010904/DTD/svg10.dtd">
<svg version="1.0" xmlns="http://www.w3.org/2000/svg"
 width="225.000000pt" height="225.000000pt" viewBox="0 0 225.000000 225.000000"
 preserveAspectRatio="xMidYMid meet">
<metadata>
Created by potrace 1.11, written by Peter Selinger 2001-2013
</metadata>
<g transform="translate(0.000000,225.000000) scale(0.100000,-0.100000)"
fill="#000000" stroke="none">
<path d="M990 2140 c-36 -5 -76 -12 -90 -16 -14 -4 -32 -9 -40 -11 -96 -24
-298 -122 -346 -167 -7 -6 -29 -25 -50 -42 -63 -51 -86 -75 -146 -149 -52 -66
-154 -241 -163 -282 -2 -10 -9 -34 -15 -53 -35 -106 -49 -207 -45 -335 4 -141
10 -198 26 -226 5 -11 7 -19 5 -19 -3 0 6 -33 20 -73 112 -312 350 -549 656
-651 67 -23 86 -28 158 -42 14 -3 79 -7 145 -9 122 -4 196 4 295 30 30 9 63
17 72 19 35 9 218 99 218 108 0 4 5 8 11 8 25 0 185 141 248 220 11 14 24 30
29 35 41 49 145 259 157 315 2 8 11 44 21 80 13 49 17 103 17 225 0 142 -3
171 -26 259 -29 107 -102 268 -148 327 -16 20 -29 40 -29 43 0 3 -8 14 -17 24
-10 11 -34 37 -53 58 -19 21 -60 59 -90 84 -30 25 -63 53 -74 63 -11 9 -25 17
-32 17 -7 0 -14 4 -16 9 -7 19 -201 103 -293 127 -112 29 -293 39 -405 24z"/>
</g>
</svg>
